<?xml version="1.0" encoding="iso-8859-1"?>
<!-- Generator: Adobe Illustrator 18.0.0, SVG Export Plug-In . SVG Version: 6.00 Build 0)  -->
<!DOCTYPE svg PUBLIC "-//W3C//DTD SVG 1.1//EN" "http://www.w3.org/Graphics/SVG/1.1/DTD/svg11.dtd">
<svg version="1.1" id="Capa_1" xmlns="http://www.w3.org/2000/svg" xmlns:xlink="http://www.w3.org/1999/xlink" x="0px" y="0px"
	 viewBox="0 0 297.5 297.5" style="enable-background:new 0 0 297.5 297.5;" xml:space="preserve">
<g>
	<g id="XMLID_38_">
		<g>
			<rect x="75.835" y="92.43" style="fill:#89A894;" width="29.67" height="6.04"/>
			<rect x="75.835" y="118.58" style="fill:#89A894;" width="29.67" height="20.11"/>
			<path style="fill:#89A894;" d="M254.845,225.18v48.94c0,1.63-1.38,3.02-3.01,3.02H45.665c-1.63,0-3.02-1.39-3.02-3.02v-48.94
				H254.845z"/>
			<path style="fill:#B8C4AC;" d="M254.845,23.38v181.69h-96.04V20.36h93.03C253.465,20.36,254.845,21.75,254.845,23.38z
				 M191.995,148.75V82.37c0-5.55-4.51-10.05-10.061-10.05c-5.55,0-10.059,4.5-10.059,10.05v66.38c0,5.55,4.51,10.06,10.059,10.06
				C187.485,158.81,191.995,154.3,191.995,148.75z"/>
			<path style="fill:#B8C4AC;" d="M138.695,20.36v184.71h-96.05V23.38c0-1.63,1.39-3.02,3.02-3.02H138.695z M125.615,148.75V82.37
				c0-5.55-4.5-10.05-10.05-10.05h-49.79c-5.551,0-10.051,4.5-10.051,10.05v66.38c0,5.55,4.5,10.06,10.051,10.06h49.79
				C121.115,158.81,125.615,154.3,125.615,148.75z"/>
			<path d="M274.965,23.38v250.74c0,12.75-10.38,23.13-23.13,23.13H45.665c-12.75,0-23.13-10.38-23.13-23.13V23.38
				c0-12.75,10.38-23.13,23.13-23.13h206.17C264.585,0.25,274.965,10.63,274.965,23.38z M254.845,274.12v-48.94H42.646v48.94
				c0,1.63,1.39,3.02,3.02,3.02h206.17C253.465,277.14,254.845,275.75,254.845,274.12z M254.845,205.07V23.38
				c0-1.63-1.38-3.02-3.01-3.02h-93.03v184.71H254.845z M138.695,205.07V20.36h-93.03c-1.63,0-3.02,1.39-3.02,3.02v181.69H138.695z"
				/>
			<path d="M191.995,82.37v66.38c0,5.55-4.51,10.06-10.061,10.06c-5.55,0-10.059-4.51-10.059-10.06V82.37
				c0-5.55,4.51-10.05,10.059-10.05C187.485,72.32,191.995,76.82,191.995,82.37z"/>
			<path d="M125.615,82.37v66.38c0,5.55-4.5,10.06-10.05,10.06h-49.79c-5.551,0-10.051-4.51-10.051-10.06V82.37
				c0-5.55,4.5-10.05,10.051-10.05h49.79C121.115,72.32,125.615,76.82,125.615,82.37z M105.505,138.69v-20.11h-29.67v20.11H105.505z
				 M105.505,98.47v-6.04h-29.67v6.04H105.505z"/>
		</g>
		<g>
		</g>
	</g>
</g>
<g>
</g>
<g>
</g>
<g>
</g>
<g>
</g>
<g>
</g>
<g>
</g>
<g>
</g>
<g>
</g>
<g>
</g>
<g>
</g>
<g>
</g>
<g>
</g>
<g>
</g>
<g>
</g>
<g>
</g>
</svg>
