<?xml version="1.0" encoding="iso-8859-1"?>
<!-- Generator: Adobe Illustrator 18.0.0, SVG Export Plug-In . SVG Version: 6.00 Build 0)  -->
<!DOCTYPE svg PUBLIC "-//W3C//DTD SVG 1.1//EN" "http://www.w3.org/Graphics/SVG/1.1/DTD/svg11.dtd">
<svg version="1.1" id="Capa_1" xmlns="http://www.w3.org/2000/svg" xmlns:xlink="http://www.w3.org/1999/xlink" x="0px" y="0px"
	 viewBox="0 0 297 297" style="enable-background:new 0 0 297 297;" xml:space="preserve">
<g>
	<path d="M251.583,0H45.417C32.663,0,22.286,10.375,22.286,23.13v250.739c0,12.754,10.377,23.131,23.131,23.131h206.166
		c12.754,0,23.131-10.377,23.131-23.131V23.13C274.714,10.375,264.337,0,251.583,0z M254.6,23.13v181.689h-96.043V20.113h93.026
		C253.218,20.113,254.6,21.495,254.6,23.13z M45.417,20.113h93.026v184.705H42.4V23.13C42.4,21.495,43.782,20.113,45.417,20.113z
		 M251.583,276.886H45.417c-1.635,0-3.017-1.382-3.017-3.017v-48.938H254.6v48.938C254.6,275.504,253.218,276.886,251.583,276.886z"
		/>
	<path d="M181.687,158.557c5.554,0,10.057-4.503,10.057-10.057V82.125c0-5.555-4.503-10.057-10.057-10.057
		s-10.057,4.502-10.057,10.057V148.5C171.631,154.054,176.134,158.557,181.687,158.557z"/>
	<path d="M65.531,158.557h49.781c5.554,0,10.057-4.503,10.057-10.057V82.125c0-5.555-4.503-10.057-10.057-10.057H65.531
		c-5.554,0-10.057,4.502-10.057,10.057V148.5C55.475,154.054,59.977,158.557,65.531,158.557z M75.588,138.443v-20.114h29.668v20.114
		H75.588z M105.256,92.182v6.034H75.588v-6.034H105.256z"/>
</g>
<g>
</g>
<g>
</g>
<g>
</g>
<g>
</g>
<g>
</g>
<g>
</g>
<g>
</g>
<g>
</g>
<g>
</g>
<g>
</g>
<g>
</g>
<g>
</g>
<g>
</g>
<g>
</g>
<g>
</g>
</svg>
