<?xml version="1.0" encoding="UTF-8"?>
<svg version="1.1" viewBox="0 0 500 500" xmlns="http://www.w3.org/2000/svg">
 <rect width="500" height="500" fill-opacity="0"/>
 <path d="m115.85 105.16v340.33c0 10.598 55.69 19.214 124.39 19.214 68.703 0 124.42-8.6162 124.42-19.214v-340.33h-248.82z" color="#000000" fill="#e5e5e5"/>
 <path transform="matrix(1.2024 0 0 .73625 -36.139 25.874)" d="m333.33 107.7a103.46 30.72 0 1 1 -206.92 0 103.46 30.72 0 1 1 206.92 0z" color="#000000" fill="#4c4c4c"/>
 <path d="m132.93 144.49c-5.2669 0.0876-9.9792 4.9597-9.8912 10.227l0.33529 252.76c-0.0751 5.3142 4.7441 10.202 10.059 10.202s10.134-4.8879 10.059-10.202l-0.3353-252.8c0.0673-5.3648-4.8621-10.274-10.227-10.185z" color="#000000" fill="#d3d3d3" style="block-progression:tb;text-indent:0;text-transform:none"/>
 <path d="m175.81 152.37c-5.2527 0.0877-9.9571 4.9316-9.8912 10.185l0.3353 251.55c-0.0751 5.3142 4.7441 10.202 10.059 10.202s10.134-4.8879 10.059-10.202l-0.33529-251.55c0.0673-5.3648-4.8621-10.274-10.227-10.185z" color="#000000" fill="#d3d3d3" style="block-progression:tb;text-indent:0;text-transform:none"/>
 <path d="m219.02 155.3c-5.2668 0.066-9.9989 4.9178-9.9332 10.185l-0.3353 251.04c-0.0854 5.3136 4.7234 10.21 10.038 10.222 5.3142 0.0107 10.143-4.8658 10.08-10.18l0.3353-251.09c0.0667-5.3506-4.834-10.251-10.185-10.185z" color="#000000" fill="#d3d3d3" style="block-progression:tb;text-indent:0;text-transform:none"/>
 <path d="m261.85 155.26c-5.2527 0.0877-9.9571 4.9316-9.8912 10.185v251.09c-0.0751 5.3142 4.7441 10.202 10.059 10.202s10.134-4.8879 10.059-10.202v-251.09c0.0672-5.3648-4.8621-10.274-10.227-10.185z" color="#000000" fill="#d3d3d3" style="block-progression:tb;text-indent:0;text-transform:none"/>
 <path d="m304.39 152.37c-5.2527 0.0877-9.9571 4.9316-9.8912 10.185v251.5c-0.0751 5.3142 4.7441 10.202 10.059 10.202s10.134-4.8879 10.059-10.202v-251.5c0.0672-5.3648-4.8621-10.274-10.227-10.185z" color="#000000" fill="#d3d3d3" style="block-progression:tb;text-indent:0;text-transform:none"/>
 <path d="m346.89 144.57c-5.2528 0.10917-9.9375 4.9734-9.8493 10.227l0.67059 252.51c-0.17544 2.7388 0.8296 5.5333 2.7092 7.533s4.6066 3.1756 7.3511 3.1699c2.7444-5e-3 5.4665-1.193 7.3378-3.2006 1.8713-2.0075 2.8646-4.8062 2.6778-7.5443l-0.62868-252.51c0.0339-2.6895-1.0652-5.3753-2.9749-7.2694s-4.6044-2.9712-7.2936-2.9152z" color="#000000" fill="#d3d3d3" style="block-progression:tb;text-indent:0;text-transform:none"/>
 <path d="m115.85 247.05s-2e-5 -6.9987 124.41-6.9987c124.41 0 124.41 6.9987 124.41 6.9987v75.774s0 6.9987-124.41 6.9987-124.41-6.9987-124.41-6.9987v-37.887z" color="#000000" fill="#636363"/>
 <g transform="matrix(1.3412 0 0 1.3412 -75.881 -111.44)">
  <path d="m279.42 143.94c-19.424-1.8168-37.701-2.5792-53.529-2.3924l-53.121-4.9686-1.5658 16.74c-0.99932 10.684 45.835 23.812 104.6 29.308 58.762 5.4963 107.22 1.2813 108.22-9.4027l1.5658-16.74-53.121-4.9686c-15.519-3.1189-33.621-5.7592-53.045-7.576z" color="#000000" fill="#979797"/>
  <path transform="matrix(1.0284 .09619 -.0589 .62971 49.118 56.605)" d="m333.33 107.7a103.46 30.72 0 0 1 -103.46 30.72 103.46 30.72 0 0 1 -103.46 -30.72 103.46 30.72 0 0 1 103.46 -30.72 103.46 30.72 0 0 1 103.46 30.72z" color="#000000" fill="#c6c6c6"/>
  <path transform="matrix(.86738 .08113 -.049678 .53112 85.137 70.685)" d="m333.33 107.7a103.46 30.72 0 0 1 -103.46 30.72 103.46 30.72 0 0 1 -103.46 -30.72 103.46 30.72 0 0 1 103.46 -30.72 103.46 30.72 0 0 1 103.46 30.72z" color="#000000" fill="#ececec"/>
  <rect transform="matrix(.99565 .093128 -.093128 .99565 0 0)" x="247.72" y="110.76" width="19.845" height="9.9224" color="#000000" fill="#ababab"/>
  <rect transform="matrix(.99565 .093128 -.093128 .99565 0 0)" x="315.65" y="110.76" width="19.845" height="9.9224" color="#000000" fill="#ababab"/>
  <path d="m245.74 139.22s2.1324-22.798 35.95-19.635c33.817 3.1631 31.685 25.961 31.685 25.961" fill="none" stroke="#ddd" stroke-width="15.284"/>
 </g>
</svg>
