<svg id="Livello_1" data-name="Livello 1" xmlns="http://www.w3.org/2000/svg" xmlns:xlink="http://www.w3.org/1999/xlink" viewBox="0 0 703.33 475"><defs><style>.cls-1,.cls-11,.cls-12,.cls-14,.cls-7{fill:none;}.cls-2{clip-path:url(#clip-path);}.cls-3{clip-path:url(#clip-path-4);}.cls-4{fill:#1a1a1a;}.cls-5{clip-path:url(#clip-path-5);}.cls-6{clip-path:url(#clip-path-25);}.cls-11,.cls-12,.cls-14,.cls-7{stroke:#1d1d1b;stroke-miterlimit:10;}.cls-7{stroke-width:0.18px;}.cls-8{fill:#1d1d1b;}.cls-9{clip-path:url(#clip-path-57);}.cls-10{clip-path:url(#clip-path-60);}.cls-12{stroke-width:0.5px;}.cls-13{clip-path:url(#clip-path-74);}.cls-14{stroke-width:0.45px;}.cls-15{clip-path:url(#clip-path-82);}.cls-16{clip-path:url(#clip-path-84);}.cls-17{clip-path:url(#clip-path-86);}</style><clipPath id="clip-path" transform="translate(-43.96 -41.2)"><rect id="SVGID" class="cls-1" x="201.77" y="240.03" width="163.41" height="165.89"/></clipPath><clipPath id="clip-path-4" transform="translate(-43.96 -41.2)"><rect id="SVGID-4" data-name="SVGID" class="cls-1" x="493.52" y="207.75" width="105.21" height="114.41" transform="translate(-47.1 136.34) rotate(-13.65)"/></clipPath><clipPath id="clip-path-5" transform="translate(-43.96 -41.2)"><rect id="SVGID-5" data-name="SVGID" class="cls-1" x="371.96" y="307.45" width="155.73" height="83"/></clipPath><clipPath id="clip-path-25" transform="translate(-43.96 -41.2)"><rect id="SVGID-25" data-name="SVGID" class="cls-1" x="415.12" y="211.94" width="332.95" height="305.67"/></clipPath><clipPath id="clip-path-57" transform="translate(-43.96 -41.2)"><rect id="SVGID-57" data-name="SVGID" class="cls-1" x="76.99" y="277.25" width="122.98" height="121.14" transform="translate(-222.92 389.64) rotate(-75.87)"/></clipPath><clipPath id="clip-path-60" transform="translate(-43.96 -41.2)"><rect id="SVGID-60" data-name="SVGID" class="cls-1" x="123.76" y="185.14" width="106.81" height="97" transform="translate(-98.37 133.35) rotate(-32.83)"/></clipPath><clipPath id="clip-path-74" transform="translate(-43.96 -41.2)"><rect id="SVGID-74" data-name="SVGID" class="cls-1" x="298.55" y="39.65" width="183.97" height="275.1" transform="translate(-2.65 5.96) rotate(-0.87)"/></clipPath><clipPath id="clip-path-82" transform="translate(-43.96 -41.2)"><rect id="SVGID-82" data-name="SVGID" class="cls-1" x="264.59" y="416.5" width="100.38" height="101.16" transform="translate(-198.29 234.68) rotate(-31.65)"/></clipPath><clipPath id="clip-path-84" transform="translate(-43.96 -41.2)"><rect id="SVGID-84" data-name="SVGID" class="cls-1" x="202.13" y="390.61" width="84.18" height="83.52" transform="translate(-251.99 413.36) rotate(-58.35)"/></clipPath><clipPath id="clip-path-86" transform="translate(-43.96 -41.2)"><rect id="SVGID-86" data-name="SVGID" class="cls-1" x="44" y="404.75" width="138.52" height="73.83"/></clipPath></defs><title>ortaggi</title><g class="cls-2"><path d="M283.59,399.78c-41.68,0-75.56-30.82-75.56-68.6,0-19.13,8.86-37.55,24.44-50.53a185.79,185.79,0,0,1,21.13-4.25c.24,0,.47.12.71.12s.35.12.59.12c-.24.24-.59.47-.83.71s-.59.47-.94.71-.59.47-.94.83a10.32,10.32,0,0,1-1.18.94l-1.06,1.06c-.35.35-.71.59-1.06.94-.59.59-1.3,1.3-1.89,2l-.35.35a54.07,54.07,0,0,0-8.38,13.34,5,5,0,0,0,1.65,6.14,5.32,5.32,0,0,0,6.49-.12c5.31-4.37,15.11-11.45,23.26-10.86-.12,8.74.35,27.51,5.55,35.54a5.11,5.11,0,0,0,4.25,2.36h.12a5.14,5.14,0,0,0,4.13-2.13c3.19-4.37,10.51-16.53,10.51-35.3,4.49.35,13.7,1.77,21,9a5.17,5.17,0,0,0,8.74-4.37,24.59,24.59,0,0,0-.94-4.6v-.24a26,26,0,0,0-2-4.6l-.35-.71a19.23,19.23,0,0,0-1.3-2,2.47,2.47,0,0,0-.47-.71c-.35-.59-.94-1.06-1.3-1.65-.35-.35-.59-.71-.94-1.06s-.94-.83-1.3-1.3l-1.42-1.42-1.53-1.18c-.59-.47-1.18-.94-1.89-1.42,1.53-.24,3.42-.47,5.79-.71h.24a5.75,5.75,0,0,0,1.42-.12h7.2l1.06.12c.94.12,1.89.24,2.72.35l.71.12c18.77,13.11,29.52,32.94,29.52,54.43-.12,37.9-34,68.72-75.56,68.72M269.66,267.66a5,5,0,0,0,4.25-1.06,5.22,5.22,0,0,0,1.89-4V248.65c0-1.42.83-2.48,1.53-2.48h6.85c.71,0,1.53,1.06,1.53,2.48v13.11a5,5,0,0,0,2.36,4.37,5.28,5.28,0,0,0,5,.35c11.33-5.2,23.26-.83,30.93,3.42a73,73,0,0,0-17.59,1.53,5.18,5.18,0,0,0-3.9,4.25,5.25,5.25,0,0,0,2.6,5.31,29.41,29.41,0,0,1,9.45,8.5,19.63,19.63,0,0,1,2.83,6,39.25,39.25,0,0,0-19.6-8.26,33.83,33.83,0,0,0-4.25-.35,5.17,5.17,0,0,0-3.78,1.53,5,5,0,0,0-1.53,3.78c.24,15.82-5.2,26.57-8.38,31.29-3.07-6.49-4-20.31-3.78-31.76a5.22,5.22,0,0,0-4.6-5.2,15.82,15.82,0,0,0-2.36-.12h-.47a4.84,4.84,0,0,0-1.3.12,10.33,10.33,0,0,0-1.89.24c-.35.12-.83.12-1.18.24-.71.12-1.3.35-2,.47-.35.12-.83.24-1.18.35-.71.24-1.3.47-2,.71a12.25,12.25,0,0,1-1.18.47c-.71.35-1.42.59-2,.94-.35.12-.71.35-1.06.47a11.21,11.21,0,0,0-2,1.18c-.35.24-.59.35-.94.59l-2.13,1.42c-.24.12-.47.35-.71.47-.94.59-1.89,1.3-2.72,1.89a35.88,35.88,0,0,1,3.54-5.43c.12-.12.12-.24.24-.24,1.3-1.65,2.6-3.07,3.78-4.37h0a42.77,42.77,0,0,1,4.6-4c.24-.12.35-.35.59-.47s.24-.12.35-.24l1.06-.71a5.31,5.31,0,0,0,2.36-4.84,5.22,5.22,0,0,0-3.19-4.25.71.71,0,0,0-.47-.12,14.27,14.27,0,0,0-2.13-.59l-1.42-.35h-.35a48,48,0,0,0-12.52-.24c11-4.84,22.2-3.42,26.92-2.48m63.28,3.78h0c-.12,0-.12-.12-.24-.12a5.12,5.12,0,0,0-2.36-4.72c-7.91-5.08-23.38-12.52-38.61-6.49V248.53c0-4.72-3.42-8.62-7.67-8.62h-6.85c-4.25,0-7.67,3.9-7.67,8.62v12.63c-6.85-1.18-21.84-2.48-36.25,6.14a5,5,0,0,0-2.13,6.26,2.58,2.58,0,0,0,.35.59c-.35.12-.59.12-.94.24a6.56,6.56,0,0,0-2,1.06c-17,14.17-26.8,34.36-26.8,55.37,0,41.21,36.72,74.86,81.7,74.86s81.7-33.53,81.7-74.86c.12-23.26-11.69-45.1-32.23-59.39" transform="translate(-43.96 -41.2)"/></g><g class="cls-2"><path d="M220.54,335a3.11,3.11,0,0,0-6.14.94,38,38,0,0,0,4.49,12.87,3.27,3.27,0,0,0,2.72,1.53,2.37,2.37,0,0,0,1.53-.47,3.06,3.06,0,0,0,1.06-4.25A29.91,29.91,0,0,1,220.54,335" transform="translate(-43.96 -41.2)"/></g><g class="cls-2"><path d="M217.59,325.63h.24a3.09,3.09,0,0,0,3.07-2.83A36.16,36.16,0,0,1,223,312.64a3.14,3.14,0,1,0-5.9-2.13,40.52,40.52,0,0,0-2.48,11.81,3.33,3.33,0,0,0,3,3.31" transform="translate(-43.96 -41.2)"/></g><g class="cls-3"><path class="cls-4" d="M597.79,272.09c0,.08,2.56,11.89-2.72,20.34q-3.74,6-11.46,7.72l-.86.21a29.57,29.57,0,0,0,5.47-11.7,2.4,2.4,0,0,0,.12-.85.28.28,0,0,1,0-.17c.14-.78.28-1.55.4-2.4,0-.25.1-.6.12-.85,0-.5.08-1,.11-1.59s.07-1.09.11-1.59c0-.17,0-.41,0-.58,0-.66,0-1.32,0-1.88a35.49,35.49,0,0,0-3.73-14.33c-.19-.45-.46-.88-.65-1.32a5.89,5.89,0,0,0-.58-1,18,18,0,0,0-1.08-1.71c-.12-.14-.13-.21-.25-.35a40.08,40.08,0,0,0-4.5-5.66.08.08,0,0,0-.1-.06,18.08,18.08,0,0,0-1.73-1.72c-.1-.06-.21-.2-.31-.25a23.06,23.06,0,0,0-2.68-2.23,11.7,11.7,0,0,0-1.6-1.18c-.31-.25-.7-.49-1-.74-1-.67-2-1.26-2.94-1.92a17.52,17.52,0,0,1-2.07-1.39,4,4,0,0,1-.7-.49c-.41-.31-.79-.55-1.2-.86a7,7,0,0,1-.81-.63c-.31-.25-.7-.49-1-.74a7,7,0,0,1-.81-.63,9.71,9.71,0,0,1-1-.9l-.93-.76c-.33-.33-.73-.65-1.06-1l-.64-.59a11.84,11.84,0,0,1-.87-.86,2.5,2.5,0,0,1-.58-.68c-.1-.06-.13-.21-.23-.27,3.48,1.79,7.12,3.21,11.13,4.79,2,.75,4.08,1.56,6.29,2.51l.1.06c18.6,6.76,23.1,21.89,24.24,28.28m-60.67,38.36-.83,0c-.5,0-1-.16-1.45-.22-.1-.06-.25,0-.35-.08a15.38,15.38,0,0,1-4.57-1.85c-8.56-5.08-11.7-16.67-11.72-16.75l0-.16,0-.16c-1.86-6-4.8-21.47,8.57-36.25,8.25-9.74,9.3-15.6,11.24-26.28,0-.25.12-.52.14-.78,2.89,9.51,5.49,22.62,3.57,34.7-.06.1,0,.25-.08.35a16,16,0,0,1-.38,1.82,8.73,8.73,0,0,1-.26,1,9.55,9.55,0,0,0-.32,1.39,6.91,6.91,0,0,1-.48,1.43c-.08.35-.24.72-.32,1.07-.3.81-.57,1.7-.95,2.54a11.46,11.46,0,0,0-.75,2c0,.08-.06.1,0,.17a19.14,19.14,0,0,0-.61,1.88.08.08,0,0,1-.06.1c-.18.62-.34,1.32-.52,1.94l0,.08a17.12,17.12,0,0,0-.36,1.9.08.08,0,0,1-.06.1,15.56,15.56,0,0,0-.21,1.86c0,.08,0,.08,0,.17,0,.58-.12,1.18-.15,1.76,0,.08,0,.08,0,.17a13.93,13.93,0,0,0,0,1.8,1.36,1.36,0,0,0,.05.56c0,.33.07.64.07,1s.09.72.09,1l.08.31a24.28,24.28,0,0,0,3,8.5h0a14.93,14.93,0,0,0,1,1.58c.12.14.15.29.27.43l.75,1.05a8.3,8.3,0,0,1,.5.7c.12.14.21.2.25.35a2.81,2.81,0,0,0,.54.53c.12.14.33.33.44.47.42.39.87.86,1.29,1.25a1.1,1.1,0,0,1,.31.25,11.45,11.45,0,0,1,1.14,1c.12.14.29.18.41.31a13.29,13.29,0,0,0,1.28.84l.29.18c.58.35,1.06.65,1.62.92a21.07,21.07,0,0,1-6,2.6,20.73,20.73,0,0,1-6.29.54m-23.34-.18c-8.25-5.16-10.32-15-10.34-15.11l-.06-.23c-3.25-10.33,1.94-25.25,12.91-37.38A88.89,88.89,0,0,1,526.49,248c.47-.44,1-.81,1.5-1.27a50.72,50.72,0,0,1-4.37,5.75c-14.76,16.18-11.5,33.34-9.39,40h0c.59,2.08,4.92,15.85,16.16,20.45-6.49,1.08-12.05.21-16.61-2.64m32-81.13h0c.31.58.65,1,.92,1.42,0,.08.1.06.12.14.5.7.92,1.42,1.4,2,.23.27.4.64.63.92s.37.49.52.78.6.76.87,1.19c.23.27.37.49.6.76s.6.76.94,1.17a7.4,7.4,0,0,1,.58.68,6,6,0,0,0,.77.8c.23.27.44.47.67.74.42.39.79.88,1.21,1.27s.54.53.85.78a7,7,0,0,1,.66.66,11.7,11.7,0,0,1,.95.84,5.6,5.6,0,0,0,.81.63c.42.39.91.69,1.33,1.08l1.22.94a7,7,0,0,1,.81.63c.41.31.89.61,1.29.92a4.57,4.57,0,0,0,.7.49c.7.49,1.47,1,2.16,1.45,1.06.65,2.13,1.3,3,1.9.19.12.31.25.5.37a26,26,0,0,1,2.34,1.82l.29.18a34.55,34.55,0,0,1,12.92,29.47c0,.08,0,.17,0,.25l-.25,2c-.06.1,0,.25-.08.35-.1.6-.22,1.12-.34,1.65a8.72,8.72,0,0,1-.26,1l-.12.52c-.08.35-.24.72-.32,1.07,0,.17-.1.27-.14.45-.16.37-.3.81-.45,1.18-.06.1,0,.17-.1.27a20,20,0,0,1-6.6,9.09.08.08,0,0,0-.06.1,11.64,11.64,0,0,1-5.93,2.35l-.54.13a2.21,2.21,0,0,0-.68.25l-.31.08-6.3,1.53a15.5,15.5,0,0,1-8.59-.47c-.54-.2-1-.34-1.45-.55-.19-.12-.45-.14-.64-.26a10.13,10.13,0,0,1-1.22-.61l-1-.59-.87-.53c-.5-.37-1-.82-1.52-1.19-.1-.06-.19-.12-.21-.2a18.09,18.09,0,0,1-1.73-1.72,16,16,0,0,1-1.17-1.44l0-.08a16.76,16.76,0,0,1-1.06-1.64.29.29,0,0,0-.13-.21l-.92-1.75h0a23.87,23.87,0,0,1-.93-2.49l-.09-.39-.23-.93-.25-1-.11-.47c-.09-.39-.09-.72-.19-1.11l-.08-.31a26,26,0,0,1,1.57-11.83h0a10.64,10.64,0,0,1,.73-1.74c.47-1.1.79-2.17,1.19-3.25l.12-.52c.32-1.07.64-2.13.88-3.18l.12-.52c.22-1.12.44-2.25.64-3.45h0c2.72-17.62-3.54-36.6-7-45.4l-.71-1.89,1.32,2.4c2.86,4,4.92,7.7,7,11M575,240c-2.28-.93-4.37-1.74-6.37-2.49-7.9-3-13.63-5.25-19.64-10.71-1.92-3.16-3.91-6.62-6.23-10.75l-4.58-8-5.93,4.73.67,1.4c0,.08,1.15,2.36,2.56,6.13-.62,2.87-1.07,5.45-1.41,7.75-.67,3.7-1.23,6.8-1.95,9.61A107.61,107.61,0,0,1,524,245a84.81,84.81,0,0,0-10.59,10c-12.1,13.23-17.51,29.28-13.84,41,.36,1.48,2.91,11.64,11.82,17.47,6.16,4,13.88,4.95,22.82,2.77a26.1,26.1,0,0,0,4.61-1.7,23.66,23.66,0,0,0,5.42-.74l.23-.06a1.11,1.11,0,0,0,.17.7,2,2,0,0,0,2.24,1.1l.31-.08,6.27-2.67-2.35,3.86a1.84,1.84,0,0,0,.64,2.64,1.93,1.93,0,0,0,1.53.2,2.05,2.05,0,0,0,1.27-.88l3.32-5.33,1.32,5.44a2,2,0,0,0,3.89-.94l-1.32-5.44,5.39,3.22a1.93,1.93,0,0,0,1.53.2,2.05,2.05,0,0,0,1.27-.88,1.84,1.84,0,0,0-.64-2.64l-3.94-2.34,6.83-.34c.16,0,.25,0,.41,0a1.9,1.9,0,0,0,1.49-2,3.24,3.24,0,0,0-.21-.86,17.7,17.7,0,0,0,4.57-2.18,23.39,23.39,0,0,0,6.19-.6l.47-.11a21.16,21.16,0,0,0,13.88-10c5.36-9.12,3.28-20.72,2.91-22.61h0c-1.49-6.8-6.46-23.54-26.92-31.17" transform="translate(-43.96 -41.2)"/></g><g class="cls-5"><path d="M443.3,354.5c6.85,0,9.29-8.72,1.06-8.72-6.85,0-9.29,8.72-1.06,8.72" transform="translate(-43.96 -41.2)"/></g><g class="cls-5"><path d="M484,338.84c6.85,0,9.29-8.72,1.14-8.72-6.85,0-9.29,8.72-1.14,8.72" transform="translate(-43.96 -41.2)"/></g><g class="cls-5"><path d="M452.11,390.37c4.4,0,12.88-6.6,4.73-6.6-4.32,0-12.8,6.6-4.73,6.6" transform="translate(-43.96 -41.2)"/></g><g class="cls-5"><path d="M485.13,372.6c7.09,0,9.13-9.38.9-9.38-7.09,0-9.05,9.38-.9,9.38" transform="translate(-43.96 -41.2)"/></g><g class="cls-5"><path d="M460.34,352.46c6.85,0,9.29-8.81,1.06-8.81-6.85,0-9.29,8.81-1.06,8.81" transform="translate(-43.96 -41.2)"/></g><g class="cls-5"><path d="M494.67,345.85c3.83,0,13-5.71,5-5.71-3.75,0-13,5.71-5,5.71" transform="translate(-43.96 -41.2)"/></g><g class="cls-5"><path d="M463.52,367.22c4.81,0,12.72-7.34,4.57-7.34-4.89.08-12.72,7.34-4.57,7.34" transform="translate(-43.96 -41.2)"/></g><g class="cls-5"><path d="M408.65,381.49c5.06,0,12.56-7.66,4.48-7.66-5.06,0-12.64,7.66-4.48,7.66" transform="translate(-43.96 -41.2)"/></g><g class="cls-5"><path d="M441.59,314.14c4.4,0,12.8-6.69,4.73-6.69-4.4,0-12.8,6.69-4.73,6.69" transform="translate(-43.96 -41.2)"/></g><g class="cls-5"><path d="M424.88,344.22c4.65,0,12.8-6.93,4.65-6.93-4.57,0-12.72,6.93-4.65,6.93" transform="translate(-43.96 -41.2)"/></g><g class="cls-5"><path d="M402.21,362.24c4.4,0,12.88-6.6,4.73-6.6-4.4,0-12.8,6.6-4.73,6.6" transform="translate(-43.96 -41.2)"/></g><g class="cls-5"><path d="M377.1,363.06c6.77,0,9.38-8.48,1.14-8.48-6.77,0-9.38,8.48-1.14,8.48" transform="translate(-43.96 -41.2)"/></g><g class="cls-5"><path d="M407.59,346.59c6.69,0,9.46-8.32,1.22-8.32-6.69,0-9.46,8.32-1.22,8.32" transform="translate(-43.96 -41.2)"/></g><g class="cls-5"><path d="M414.6,361.59c3.75,0,13-5.63,5-5.63-3.75,0-13,5.63-5,5.63" transform="translate(-43.96 -41.2)"/></g><g class="cls-5"><path d="M422.51,336.56c5.3,0,12.47-8,4.4-8-5.3,0-12.47,8-4.4,8" transform="translate(-43.96 -41.2)"/></g><g class="cls-5"><path d="M519.62,365.59c4.32,0,12.88-6.52,4.73-6.52-4.32,0-12.88,6.52-4.73,6.52" transform="translate(-43.96 -41.2)"/></g><g class="cls-5"><path d="M517.09,348c4,0,13-6,4.89-6-3.91,0-12.88,6-4.89,6" transform="translate(-43.96 -41.2)"/></g><g class="cls-5"><path d="M460,324.49c6.85,0,9.29-8.64,1.14-8.64-6.85,0-9.29,8.64-1.14,8.64" transform="translate(-43.96 -41.2)"/></g><g class="cls-5"><path d="M425.36,378.22c3.59,0,13-5.3,5.06-5.3-3.51,0-13,5.3-5.06,5.3" transform="translate(-43.96 -41.2)"/></g><g class="cls-5"><path d="M490,387c4.24,0,12.88-6.44,4.81-6.44-4.24,0-12.88,6.44-4.81,6.44" transform="translate(-43.96 -41.2)"/></g><g class="cls-6"><path d="M426.13,491.82C413.87,459,435.9,427.24,463.68,411c28.79-16.77,62.84-23,92.88-37.55,25-12,51.57-27.54,70.85-48.07a70.77,70.77,0,0,0,17.77-33.3c1.75-7,2.5-14.27,5.26-21,4.76-12.27,24.28-24,31.54-8,.75,1.5,5.76-.25,6.26-1.5,4.51-10.26,37.8,19.28,40.3,23.78,9.26,17.27-3.76,35.55-12.77,49.57A479.25,479.25,0,0,1,647.69,419a418.28,418.28,0,0,1-83.11,63.59c-38.3,22-102.39,53.32-134.43,7-1-1.5-6.76,1-6.26,1.75,25.28,36.3,72.35,26,106.65,11.27,45.81-19.78,87.37-49.07,122.67-83.86a503.18,503.18,0,0,0,49.07-56.58c12.77-17,35.3-41.81,35.8-64.34.5-19.53-20-33.3-36.3-39.3-6.76-2.5-16-3.5-19.53,4,2-.5,4.26-1,6.26-1.5-8-17.77-30.79-10.51-39.55,2.25-11.27,16.27-8.26,37.8-20.28,54.32-13.77,19-36.3,33-56.33,44.81-36.55,21-79.61,27.79-115.41,49.57-27.29,16.77-48.57,48.57-36.55,81.11,0,2,6.26,0,5.76-1.25" transform="translate(-43.96 -41.2)"/></g><g class="cls-6"><path class="cls-7" d="M426.13,491.82C413.87,459,435.9,427.24,463.68,411c28.79-16.77,62.84-23,92.88-37.55,25-12,51.57-27.54,70.85-48.07a70.77,70.77,0,0,0,17.77-33.3c1.75-7,2.5-14.27,5.26-21,4.76-12.27,24.28-24,31.54-8,.75,1.5,5.76-.25,6.26-1.5,4.51-10.26,37.8,19.28,40.3,23.78,9.26,17.27-3.76,35.55-12.77,49.57A479.25,479.25,0,0,1,647.69,419a418.28,418.28,0,0,1-83.11,63.59c-38.3,22-102.39,53.32-134.43,7-1-1.5-6.76,1-6.26,1.75,25.28,36.3,72.35,26,106.65,11.27,45.81-19.78,87.37-49.07,122.67-83.86a503.18,503.18,0,0,0,49.07-56.58c12.77-17,35.3-41.81,35.8-64.34.5-19.53-20-33.3-36.3-39.3-6.76-2.5-16-3.5-19.53,4,2-.5,4.26-1,6.26-1.5-8-17.77-30.79-10.51-39.55,2.25-11.27,16.27-8.26,37.8-20.28,54.32-13.77,19-36.3,33-56.33,44.81-36.55,21-79.61,27.79-115.41,49.57-27.29,16.77-48.57,48.57-36.55,81.11C420.38,495.08,426.63,493.08,426.13,491.82Z" transform="translate(-43.96 -41.2)"/></g><g class="cls-6"><path class="cls-8" d="M678.73,245c-1-4.51-3-11.77-1.25-16.52,9.51-10.76,15.77-12.52,18.27-4.76a15.51,15.51,0,0,1,2,6c2.25,9.26.75,19.78-1,28.79A52.7,52.7,0,0,1,703,258c.75-4.26,1.5-8.76,2.5-13,1.25-6.51.25-10.51,6.51-13,12.77-4.51,1.75,21.28.25,27-.5,2.75,4.26,1.5,5.26,1a36.36,36.36,0,0,1,6.51-4.26c6.51-3,18-3,14,6.26-2.5,5.51-8.26,9-11.77,14-2.25,3,3.5,3.5,5.26,1.5,5-6.51,22.78-19,12.52-29-8.26-8.26-24,5-30.54,9.26,1.75.25,3.5.75,5.26,1,2.25-9,14-35.3-6.26-34.55-14.27.5-13.77,25.28-15.52,34.55-.5,2.75,5.76,2,6.26-.5,2.5-12.27,6.76-43.31-12.77-45.06-18.78-1.5-20.78,20.53-17.77,33.55.25,2.5,6.51,1,6-1.75" transform="translate(-43.96 -41.2)"/></g><g class="cls-6"><path class="cls-7" d="M678.73,245c-1-4.51-3-11.77-1.25-16.52,9.51-10.76,15.77-12.52,18.27-4.76a15.51,15.51,0,0,1,2,6c2.25,9.26.75,19.78-1,28.79A52.7,52.7,0,0,1,703,258c.75-4.26,1.5-8.76,2.5-13,1.25-6.51.25-10.51,6.51-13,12.77-4.51,1.75,21.28.25,27-.5,2.75,4.26,1.5,5.26,1a36.36,36.36,0,0,1,6.51-4.26c6.51-3,18-3,14,6.26-2.5,5.51-8.26,9-11.77,14-2.25,3,3.5,3.5,5.26,1.5,5-6.51,22.78-19,12.52-29-8.26-8.26-24,5-30.54,9.26,1.75.25,3.5.75,5.26,1,2.25-9,14-35.3-6.26-34.55-14.27.5-13.77,25.28-15.52,34.55-.5,2.75,5.76,2,6.26-.5,2.5-12.27,6.76-43.31-12.77-45.06-18.78-1.5-20.78,20.53-17.77,33.55C673,249.24,679.23,247.74,678.73,245Z" transform="translate(-43.96 -41.2)"/></g><g class="cls-6"><path class="cls-8" d="M441.65,476.05c-1.5,8.51,6.76,14.52,14.77,13.27a16.61,16.61,0,0,0,13.52-17.52c-1-8.76-9.26-18.53-18.78-17.52-8.76,1-11.77,9.26-12.77,17-.25,2.5,6,1.5,6.26-.75a42.45,42.45,0,0,1,1-5.51c1-3.25,1.25-4.51,4.76-5.51,4-1.25,5.76.75,8.51,3.5a18.07,18.07,0,0,1,3.5,6c1.5,4.26,1.5,8.76-.75,12.52-5.51,8.51-15.27,1.5-13.77-6.26.5-2.5-6-1.5-6.26.75" transform="translate(-43.96 -41.2)"/></g><g class="cls-6"><path class="cls-7" d="M441.65,476.05c-1.5,8.51,6.76,14.52,14.77,13.27a16.61,16.61,0,0,0,13.52-17.52c-1-8.76-9.26-18.53-18.78-17.52-8.76,1-11.77,9.26-12.77,17-.25,2.5,6,1.5,6.26-.75a42.45,42.45,0,0,1,1-5.51c1-3.25,1.25-4.51,4.76-5.51,4-1.25,5.76.75,8.51,3.5a18.07,18.07,0,0,1,3.5,6c1.5,4.26,1.5,8.76-.75,12.52-5.51,8.51-15.27,1.5-13.77-6.26C448.41,472.8,441.91,473.8,441.65,476.05Z" transform="translate(-43.96 -41.2)"/></g><g class="cls-6"><path class="cls-8" d="M475,451.77c11.27-18.78,42.56-20.28,61.83-24.53,3.76-.75,2.75-4.51-1-3.76-21.78,5-53.57,6.51-66.59,28-2,2.5,4.51,2.25,5.76.25" transform="translate(-43.96 -41.2)"/></g><g class="cls-6"><path class="cls-7" d="M475,451.77c11.27-18.78,42.56-20.28,61.83-24.53,3.76-.75,2.75-4.51-1-3.76-21.78,5-53.57,6.51-66.59,28C467.19,454,473.7,453.77,475,451.77Z" transform="translate(-43.96 -41.2)"/></g><g class="cls-6"><path class="cls-8" d="M549.3,416.22c55.33-39.55,109.9-85.12,133.93-150.71.5-1.25-5.51-.5-6.26,1C653.19,331.61,599.12,376.92,544.29,416c-2.5,2,3.76,1,5,.25" transform="translate(-43.96 -41.2)"/></g><g class="cls-6"><path class="cls-7" d="M549.3,416.22c55.33-39.55,109.9-85.12,133.93-150.71.5-1.25-5.51-.5-6.26,1C653.19,331.61,599.12,376.92,544.29,416,541.79,418,548.05,417,549.3,416.22Z" transform="translate(-43.96 -41.2)"/></g><g class="cls-6"><path class="cls-8" d="M485.71,485.07c27,1.25,50.07-10.51,73.6-22.78,23.78-12.52,51.82-23,70.6-42.56,2.5-2.75-3.5-2.75-5-1.25-16.77,17-41.31,26.79-62.34,37.8-23.53,12.27-47.06,26-74.6,25-2.5-.25-6.51,3.5-2.25,3.76" transform="translate(-43.96 -41.2)"/></g><g class="cls-6"><path class="cls-7" d="M485.71,485.07c27,1.25,50.07-10.51,73.6-22.78,23.78-12.52,51.82-23,70.6-42.56,2.5-2.75-3.5-2.75-5-1.25-16.77,17-41.31,26.79-62.34,37.8-23.53,12.27-47.06,26-74.6,25C485.46,481.06,481.46,484.81,485.71,485.07Z" transform="translate(-43.96 -41.2)"/></g><g class="cls-6"><path class="cls-8" d="M653.94,391.44a711.22,711.22,0,0,0,53.57-74.6c.5-.5-5.26-.5-6.26,1.25a686,686,0,0,1-53.57,74.6c0,.25,5.26,0,6.26-1.25" transform="translate(-43.96 -41.2)"/></g><g class="cls-6"><path class="cls-7" d="M653.94,391.44a711.22,711.22,0,0,0,53.57-74.6c.5-.5-5.26-.5-6.26,1.25a686,686,0,0,1-53.57,74.6C647.69,392.94,652.94,392.69,653.94,391.44Z" transform="translate(-43.96 -41.2)"/></g><g class="cls-6"><path class="cls-8" d="M706.52,310.58l-1.5,1.5a1.4,1.4,0,0,0,.75,2.5,4.91,4.91,0,0,0,4.51-1.25l1.5-1.5a1.4,1.4,0,0,0-.75-2.5,4.91,4.91,0,0,0-4.51,1.25" transform="translate(-43.96 -41.2)"/></g><g class="cls-6"><path class="cls-7" d="M706.52,310.58l-1.5,1.5a1.4,1.4,0,0,0,.75,2.5,4.91,4.91,0,0,0,4.51-1.25l1.5-1.5a1.4,1.4,0,0,0-.75-2.5A4.91,4.91,0,0,0,706.52,310.58Z" transform="translate(-43.96 -41.2)"/></g><g class="cls-6"><path class="cls-8" d="M502.74,461.28h1.5c1.25,0,3.25-1,3.5-2.5.25-1.75-1.75-2-3-2h-1.5c-1.25,0-3.25,1-3.5,2.5,0,1.5,2,2,3,2" transform="translate(-43.96 -41.2)"/></g><g class="cls-6"><path class="cls-7" d="M502.74,461.28h1.5c1.25,0,3.25-1,3.5-2.5.25-1.75-1.75-2-3-2h-1.5c-1.25,0-3.25,1-3.5,2.5C499.73,460.78,501.74,461.28,502.74,461.28Z" transform="translate(-43.96 -41.2)"/></g><g class="cls-6"><path class="cls-8" d="M536,448.26v-1.5c0-3.25-6.26-2.25-6.26.5v1.5c0,3.25,6.26,2.25,6.26-.5" transform="translate(-43.96 -41.2)"/></g><g class="cls-6"><path class="cls-7" d="M536,448.26v-1.5c0-3.25-6.26-2.25-6.26.5v1.5C529.78,452,536,451,536,448.26Z" transform="translate(-43.96 -41.2)"/></g><g class="cls-6"><path class="cls-8" d="M488,419.48c3.5,0,4.76-4.51.5-4.51-3.5,0-4.76,4.51-.5,4.51" transform="translate(-43.96 -41.2)"/></g><g class="cls-6"><path class="cls-7" d="M488,419.48c3.5,0,4.76-4.51.5-4.51C485,415,483.71,419.48,488,419.48Z" transform="translate(-43.96 -41.2)"/></g><g class="cls-6"><path class="cls-8" d="M476,504.34c3.5,0,5-4.26.5-4.26-3.25,0-4.76,4.26-.5,4.26" transform="translate(-43.96 -41.2)"/></g><g class="cls-6"><path class="cls-7" d="M476,504.34c3.5,0,5-4.26.5-4.26C473.2,500.09,471.7,504.34,476,504.34Z" transform="translate(-43.96 -41.2)"/></g><g class="cls-6"><path class="cls-8" d="M536,486.82l1.5-3c.5-1.25-2-1.25-2.75-1.25-1.25.25-3,.75-3.5,2l-1.5,3c-.5,1.25,2,1.25,2.75,1.25,1.25-.25,3-.75,3.5-2" transform="translate(-43.96 -41.2)"/></g><g class="cls-6"><path class="cls-7" d="M536,486.82l1.5-3c.5-1.25-2-1.25-2.75-1.25-1.25.25-3,.75-3.5,2l-1.5,3c-.5,1.25,2,1.25,2.75,1.25C533.78,488.57,535.53,488.07,536,486.82Z" transform="translate(-43.96 -41.2)"/></g><g class="cls-6"><path class="cls-8" d="M580.84,423.73v-1.5c0-1-6.26,0-6.26,1.75v1.5c0,1,6.26,0,6.26-1.75" transform="translate(-43.96 -41.2)"/></g><g class="cls-6"><path class="cls-7" d="M580.84,423.73v-1.5c0-1-6.26,0-6.26,1.75v1.5C574.59,426.49,580.84,425.48,580.84,423.73Z" transform="translate(-43.96 -41.2)"/></g><g class="cls-6"><path class="cls-8" d="M606.38,405.71c2.5,0,6.51-4,2.25-4-2.5,0-6.51,4-2.25,4" transform="translate(-43.96 -41.2)"/></g><g class="cls-6"><path class="cls-7" d="M606.38,405.71c2.5,0,6.51-4,2.25-4C606.13,401.7,602.12,405.71,606.38,405.71Z" transform="translate(-43.96 -41.2)"/></g><g class="cls-6"><path class="cls-8" d="M557.81,385.43c1.25,0,7-2.25,4-2.25-1.25,0-7,2.25-4,2.25" transform="translate(-43.96 -41.2)"/></g><g class="cls-6"><path class="cls-7" d="M557.81,385.43c1.25,0,7-2.25,4-2.25C560.57,383.18,554.81,385.43,557.81,385.43Z" transform="translate(-43.96 -41.2)"/></g><g class="cls-9"><path d="M124.67,393.05c-30-7.54-48.75-35.83-41.91-63,3.46-13.75,13.16-25.39,26.72-31.91a137.73,137.73,0,0,1,16,.77c.17,0,.32.17.49.21s.23.15.4.19c-.21.13-.51.23-.72.36s-.51.23-.81.34-.51.23-.83.42a7.65,7.65,0,0,1-1,.47l-1,.57c-.32.19-.62.3-.93.49-.53.32-1.17.7-1.72,1.1l-.32.19a40.08,40.08,0,0,0-8.44,8.07,3.69,3.69,0,0,0,.08,4.71,3.94,3.94,0,0,0,4.69,1.09c4.61-2.18,12.94-5.5,18.69-3.6-1.67,6.26-4.72,19.84-2.44,26.55a3.79,3.79,0,0,0,2.63,2.47l.08,0a3.81,3.81,0,0,0,3.36-.78c3.08-2.56,10.55-10,13.94-23.48,3.16,1.07,9.53,3.75,13.48,10.25a3.83,3.83,0,0,0,7.07-1.56,18.23,18.23,0,0,0,.15-3.48l0-.17a19.24,19.24,0,0,0-.61-3.67l-.13-.57a14.26,14.26,0,0,0-.57-1.68,1.83,1.83,0,0,0-.21-.59c-.15-.49-.49-.93-.63-1.42-.19-.32-.3-.62-.49-.93s-.53-.77-.7-1.17l-.76-1.27-.89-1.13c-.34-.45-.68-.89-1.1-1.36,1.15.11,2.55.28,4.29.54l.17,0a4.26,4.26,0,0,0,1,.17l.59.15.85.21,1.1.28.51.13,2.12.53.74.28,1.89.75.49.21c11.12,12.82,15.26,29,11.37,44.47-6.94,27.23-36.88,43.25-66.76,35.72m13.89-97.5a3.71,3.71,0,0,0,3.25,0A3.87,3.87,0,0,0,143.9,293l2.52-10c.26-1,1-1.63,1.55-1.5l4.92,1.24c.51.13.91,1,.65,2.06l-2.37,9.42a3.74,3.74,0,0,0,.91,3.57,3.92,3.92,0,0,0,3.5,1.15c9.09-1.68,16.87,3.62,21.62,8.06a54.1,54.1,0,0,0-12.92-2.08,3.84,3.84,0,0,0-3.57,2.35,3.89,3.89,0,0,0,.91,4.29,21.8,21.8,0,0,1,5.25,7.82,14.55,14.55,0,0,1,.95,4.84,29.1,29.1,0,0,0-12.59-9.49,25.08,25.08,0,0,0-3-1,3.83,3.83,0,0,0-3,.42,3.7,3.7,0,0,0-1.79,2.44c-2.69,11.42-8.54,18.16-11.69,21-1-5.22.79-15.33,3-23.52a3.87,3.87,0,0,0-2.37-4.57,11.73,11.73,0,0,0-1.68-.51l-.34-.09a3.59,3.59,0,0,0-1-.15,7.66,7.66,0,0,0-1.4-.17c-.28,0-.62-.06-.89,0-.53,0-1,0-1.53,0l-.91,0-1.57.15a9.08,9.08,0,0,1-.93.13c-.57.13-1.13.17-1.61.32-.28,0-.57.13-.85.15a8.31,8.31,0,0,0-1.66.49l-.79.25-1.78.63c-.19,0-.4.17-.59.21-.79.25-1.59.59-2.29.87a26.6,26.6,0,0,1,3.53-3.26c.11-.06.13-.15.21-.13,1.23-1,2.42-1.74,3.51-2.46h0a31.71,31.71,0,0,1,4-2.05c.19,0,.32-.19.51-.23s.19,0,.3-.11l.89-.32a3.94,3.94,0,0,0,2.57-3.05,3.87,3.87,0,0,0-1.52-3.63.53.53,0,0,0-.32-.17,10.58,10.58,0,0,0-1.42-.81l-1-.51-.17,0-.08,0a35.57,35.57,0,0,0-9-2.43c8.77-1.49,16.58,1.56,19.8,3.09m44.81,14.17h0c-.08,0-.06-.11-.15-.13a3.8,3.8,0,0,0-.84-3.82c-4.77-5.08-14.54-13.23-26.58-11.66l2.09-8.32c.85-3.4-.9-6.82-4-7.59L149,277c-3.06-.77-6.22,1.41-7.08,4.81l-2.29,9.08c-4.71-2.09-15.25-5.74-27.17-2.15a3.68,3.68,0,0,0-2.66,4.11,1.91,1.91,0,0,0,.15.49c-.28,0-.45,0-.72,0a4.87,4.87,0,0,0-1.64.4c-14.79,7.11-25.49,19.85-29.29,35-7.46,29.62,12.85,60.46,45.19,68.6s64.81-9.32,72.28-39c4.29-16.7-.24-34.54-12.42-48.53" transform="translate(-43.96 -41.2)"/></g><g class="cls-9"><path d="M91.07,335a2.3,2.3,0,0,0-4.58-.43,28.15,28.15,0,0,0,.9,10.06,2.43,2.43,0,0,0,1.67,1.59,1.76,1.76,0,0,0,1.19-.06,2.27,2.27,0,0,0,1.53-2.86,22.17,22.17,0,0,1-.71-8.3" transform="translate(-43.96 -41.2)"/></g><g class="cls-9"><path d="M90.64,327.8l.17,0a2.29,2.29,0,0,0,2.72-1.48,26.81,26.81,0,0,1,3.37-6.92,2.33,2.33,0,0,0-3.86-2.6,30,30,0,0,0-3.92,8,2.47,2.47,0,0,0,1.52,2.91" transform="translate(-43.96 -41.2)"/></g><g class="cls-10"><path class="cls-8" d="M229.77,249.22c3.28-2.57,3.13-6.29,2.8-10.11a93.65,93.65,0,0,0-4.29-19.35c-3.26-9.58-8.8-18.69-17.59-24.13A37.17,37.17,0,0,0,185,190.75a40.67,40.67,0,0,0-13.46,5.42,38.77,38.77,0,0,1-19.17,6c-10.22.53-20.51.76-26.15,10.81-4.68,8.41-4.69,19.19-2.7,28.36,1.64,7.59,4.89,17.51,13.34,19.8,4.64,1.27,9.45.19,14.08-.1a98,98,0,0,1,22.32.65c19.35,2.67,52.34,11.15,60.16-15,.25-.83-1.46-2.09-1.74-1.13-6,19.93-30,19.34-46.42,16.47-8.61-1.52-17.1-3-25.89-3.06-4.37,0-8.67.31-13,.75a43.89,43.89,0,0,1-6.68.27c-5.44-.42-9.36-4.41-11.43-9.36a47,47,0,0,1-2.83-29.28c2.62-10.9,10.27-16.28,21.09-17.09,8-.59,15.6-.18,22.81-4.16,8.34-4.48,15.15-8.54,25.06-8,12.94.74,23.33,8.31,29.2,19.68a70.23,70.23,0,0,1,6,18.28c1,5.07,3.87,14-1.11,17.78-.9.35.63,1.84,1.34,1.38" transform="translate(-43.96 -41.2)"/></g><g class="cls-10"><path class="cls-11" d="M229.77,249.22c3.28-2.57,3.13-6.29,2.8-10.11a93.65,93.65,0,0,0-4.29-19.35c-3.26-9.58-8.8-18.69-17.59-24.13A37.17,37.17,0,0,0,185,190.75a40.67,40.67,0,0,0-13.46,5.42,38.77,38.77,0,0,1-19.17,6c-10.22.53-20.51.76-26.15,10.81-4.68,8.41-4.69,19.19-2.7,28.36,1.64,7.59,4.89,17.51,13.34,19.8,4.64,1.27,9.45.19,14.08-.1a98,98,0,0,1,22.32.65c19.35,2.67,52.34,11.15,60.16-15,.25-.83-1.46-2.09-1.74-1.13-6,19.93-30,19.34-46.42,16.47-8.61-1.52-17.1-3-25.89-3.06-4.37,0-8.67.31-13,.75a43.89,43.89,0,0,1-6.68.27c-5.44-.42-9.36-4.41-11.43-9.36a47,47,0,0,1-2.83-29.28c2.62-10.9,10.27-16.28,21.09-17.09,8-.59,15.6-.18,22.81-4.16,8.34-4.48,15.15-8.54,25.06-8,12.94.74,23.33,8.31,29.2,19.68a70.23,70.23,0,0,1,6,18.28c1,5.07,3.87,14-1.11,17.78C227.54,248.19,229.06,249.68,229.77,249.22Z" transform="translate(-43.96 -41.2)"/></g><g class="cls-10"><path class="cls-8" d="M208.37,228.22a7.72,7.72,0,0,0,3-4.87c.15-1-1.65-1.86-1.9-.68a6.64,6.64,0,0,1-2.34,3.86c-1,.66.38,2.34,1.2,1.69" transform="translate(-43.96 -41.2)"/></g><g class="cls-10"><path class="cls-12" d="M208.37,228.22a7.72,7.72,0,0,0,3-4.87c.15-1-1.65-1.86-1.9-.68a6.64,6.64,0,0,1-2.34,3.86C206.13,227.19,207.55,228.86,208.37,228.22Z" transform="translate(-43.96 -41.2)"/></g><g class="cls-10"><path class="cls-8" d="M183.77,215.34a2.42,2.42,0,0,0,.56-2.27,2.37,2.37,0,0,0-.93-1.09c-.18-.11-.83-.25-.66.2a1.61,1.61,0,0,1-.45,1.75c-.56.36,1,1.8,1.47,1.41" transform="translate(-43.96 -41.2)"/></g><g class="cls-10"><path class="cls-12" d="M183.77,215.34a2.42,2.42,0,0,0,.56-2.27,2.37,2.37,0,0,0-.93-1.09c-.18-.11-.83-.25-.66.2a1.61,1.61,0,0,1-.45,1.75C181.75,214.29,183.35,215.72,183.77,215.34Z" transform="translate(-43.96 -41.2)"/></g><g class="cls-10"><path class="cls-8" d="M180.51,233.95c.72-.8-.31-1.71-.88-2.24-.18-.11-.7-.56-.83-.25s.61,1,.8,1.06c-.88-.67-.23-.53-.73-.09-.29.41,1.31,1.85,1.65,1.52" transform="translate(-43.96 -41.2)"/></g><g class="cls-10"><path class="cls-12" d="M180.51,233.95c.72-.8-.31-1.71-.88-2.24-.18-.11-.7-.56-.83-.25s.61,1,.8,1.06c-.88-.67-.23-.53-.73-.09C178.56,232.85,180.16,234.28,180.51,233.95Z" transform="translate(-43.96 -41.2)"/></g><g class="cls-10"><path class="cls-8" d="M163.14,221.47c.16-.44.2-.91.36-1.36.17-.78-1.54-2-1.74-1.13-.16.44-.2.91-.36,1.36-.17.78,1.62,2,1.74,1.13" transform="translate(-43.96 -41.2)"/></g><g class="cls-10"><path class="cls-12" d="M163.14,221.47c.16-.44.2-.91.36-1.36.17-.78-1.54-2-1.74-1.13-.16.44-.2.91-.36,1.36C161.23,221.12,163,222.33,163.14,221.47Z" transform="translate(-43.96 -41.2)"/></g><g class="cls-10"><path class="cls-8" d="M143.73,226l1.36-1.55c.64-.75-1-2.19-1.6-1.44l-1.36,1.55c-.64.75,1,2.19,1.6,1.44" transform="translate(-43.96 -41.2)"/></g><g class="cls-10"><path class="cls-12" d="M143.73,226l1.36-1.55c.64-.75-1-2.19-1.6-1.44l-1.36,1.55C141.48,225.33,143.09,226.76,143.73,226Z" transform="translate(-43.96 -41.2)"/></g><g class="cls-10"><path class="cls-8" d="M142.45,236l-.4.26c-.48.31,1,1.85,1.6,1.44l.4-.26c.4-.26-1-1.8-1.6-1.44" transform="translate(-43.96 -41.2)"/></g><g class="cls-10"><path class="cls-12" d="M142.45,236l-.4.26c-.48.31,1,1.85,1.6,1.44l.4-.26C144.45,237.23,143,235.69,142.45,236Z" transform="translate(-43.96 -41.2)"/></g><g class="cls-13"><path class="cls-8" d="M363.29,110.12c-12.49-15.5-37.38-12.54-51.82-1.15-21.88,17.1-7.06,44.39,4.82,62.48,9.46,14.26,16.56,29.2,19.83,46.34,3,16.07.9,31.15.07,47.29-.49,9.9.75,20.84,9.23,27.37,8.7,6.75,20.72,5.92,30.81,4.48,1.72-.24,3-2.41.4-2.16-12.22,1.91-26.84,1.7-33.48-10.45-5.08-9.17-3.53-20.37-2.4-30.49,2.26-21.31-.22-42.56-9.12-62.41-8.23-18.36-25.24-34-27.7-54.61-2-15.66,6.88-28.48,22.06-33.22,12.19-3.84,25.76-2.33,33.87,8.08.88,1.06,4.29-.28,3.42-1.56" transform="translate(-43.96 -41.2)"/></g><g class="cls-13"><path class="cls-14" d="M363.29,110.12c-12.49-15.5-37.38-12.54-51.82-1.15-21.88,17.1-7.06,44.39,4.82,62.48,9.46,14.26,16.56,29.2,19.83,46.34,3,16.07.9,31.15.07,47.29-.49,9.9.75,20.84,9.23,27.37,8.7,6.75,20.72,5.92,30.81,4.48,1.72-.24,3-2.41.4-2.16-12.22,1.91-26.84,1.7-33.48-10.45-5.08-9.17-3.53-20.37-2.4-30.49,2.26-21.31-.22-42.56-9.12-62.41-8.23-18.36-25.24-34-27.7-54.61-2-15.66,6.88-28.48,22.06-33.22,12.19-3.84,25.76-2.33,33.87,8.08C360.75,112.74,364.17,111.4,363.29,110.12Z" transform="translate(-43.96 -41.2)"/></g><g class="cls-13"><path class="cls-8" d="M387.3,105.89c-8.24-4.82-18.31-2.3-24.87,4.25-11.86,11.79-7.66,33.22-6.79,48,2.85,46,14.25,89.2,25.67,133.52,3,11.13,6.58,23.11,20.73,20.32,12.86-2.56,24.51-13.48,31.88-23.91,9.68-13.69,13.31-29.65,12.62-46.19-1-22.77-4.35-45.72-6.84-68.46-2.25-20.82-2.67-48.54-16.26-65.74-8.11-10.19-21.48-13.22-32.11-5.53-1.49,1.1,2.16.83,2.8.17,14.88-10.76,27.61,6.46,31.87,18,3.13,7.91,4.76,16.26,6.17,24.41,3.06,17.79,4.41,35.83,6.41,53.85,3.78,36.27,11.9,75.91-19.94,102.4-6.16,5-9.57,6.59-17.74,6.93-9,.35-10.75-.27-13.67-8.18-2.92-8.12-4.55-16.7-6.61-25-4.8-19.06-10-37.89-14.19-57a385.88,385.88,0,0,1-7.06-54.49c-.56-8.8-1.35-17.82-1.48-26.63-.08-5.37,0-11,1.69-16.15,2.87-9.07,11.73-20.38,24.09-13.26,1.3.63,4.28-.92,3.63-1.34" transform="translate(-43.96 -41.2)"/></g><g class="cls-13"><path class="cls-14" d="M387.3,105.89c-8.24-4.82-18.31-2.3-24.87,4.25-11.86,11.79-7.66,33.22-6.79,48,2.85,46,14.25,89.2,25.67,133.52,3,11.13,6.58,23.11,20.73,20.32,12.86-2.56,24.51-13.48,31.88-23.91,9.68-13.69,13.31-29.65,12.62-46.19-1-22.77-4.35-45.72-6.84-68.46-2.25-20.82-2.67-48.54-16.26-65.74-8.11-10.19-21.48-13.22-32.11-5.53-1.49,1.1,2.16.83,2.8.17,14.88-10.76,27.61,6.46,31.87,18,3.13,7.91,4.76,16.26,6.17,24.41,3.06,17.79,4.41,35.83,6.41,53.85,3.78,36.27,11.9,75.91-19.94,102.4-6.16,5-9.57,6.59-17.74,6.93-9,.35-10.75-.27-13.67-8.18-2.92-8.12-4.55-16.7-6.61-25-4.8-19.06-10-37.89-14.19-57a385.88,385.88,0,0,1-7.06-54.49c-.56-8.8-1.35-17.82-1.48-26.63-.08-5.37,0-11,1.69-16.15,2.87-9.07,11.73-20.38,24.09-13.26C385,107.86,388,106.31,387.3,105.89Z" transform="translate(-43.96 -41.2)"/></g><g class="cls-13"><path class="cls-8" d="M422.77,106.21a12.77,12.77,0,0,0,10.35,2c5.57-.94,8.14-2.06,14.16-1.5,7.75.74,9.72,3.29,12,10.57,2.73,9.63,3.1,20.16,4.32,29.81l4.4,34.75c2.92,22.53,5.84,44.84,8.76,67.36,1.46,11.16,2.71,22.53-2.94,32.72-8.58,15.61-27,20.62-43,13.55-1.08-.41-4.28,1.14-2.77,1.76,15.8,7.07,34.88,3.55,45.84-10.37,6.12-7.62,8.13-16.89,7.76-26.56C481,245.47,478,230.47,476,215.67c-3.91-30.68-7.38-61.36-11.93-91.82-1-6.86-2.61-15.87-9.53-19.2-9.1-4.59-20.11,6.11-28.58.43-.87-.85-4.29.5-3.21,1.12" transform="translate(-43.96 -41.2)"/></g><g class="cls-13"><path class="cls-14" d="M422.77,106.21a12.77,12.77,0,0,0,10.35,2c5.57-.94,8.14-2.06,14.16-1.5,7.75.74,9.72,3.29,12,10.57,2.73,9.63,3.1,20.16,4.32,29.81l4.4,34.75c2.92,22.53,5.84,44.84,8.76,67.36,1.46,11.16,2.71,22.53-2.94,32.72-8.58,15.61-27,20.62-43,13.55-1.08-.41-4.28,1.14-2.77,1.76,15.8,7.07,34.88,3.55,45.84-10.37,6.12-7.62,8.13-16.89,7.76-26.56C481,245.47,478,230.47,476,215.67c-3.91-30.68-7.38-61.36-11.93-91.82-1-6.86-2.61-15.87-9.53-19.2-9.1-4.59-20.11,6.11-28.58.43C425.11,104.24,421.69,105.58,422.77,106.21Z" transform="translate(-43.96 -41.2)"/></g><g class="cls-13"><path class="cls-8" d="M378.89,103.87a32.43,32.43,0,0,0,4.92-16c.1-7.74-2.36-13.72,2.92-20.25,4.43-5.44,10.84-8.12,16.36-12.5a85.59,85.59,0,0,0,12.71-12.23c-1.07,0-2.15.25-3.22.26,1.11,2.13,6.81,9.35,5.77,11.73-.21.65-7.91,2.91-8.55,3.35a40.71,40.71,0,0,0-12.11,9.64c-8,9.58-12.52,24.69-2.91,34.65.87.85,4.29-.5,3.42-1.56-16.81-17.16,6.68-41.16,23.61-44.85.43,0,1.92-.67,1.48-1.53-2.43-4.26-4.64-8.31-7.07-12.57-.66-1.06-2.59-.61-3.22.26a82.92,82.92,0,0,1-17.82,15.75c-4,2.64-9.17,4.65-12.13,8.35s-3.54,7.36-3.47,12.09c-.07,9.67,1.33,16.53-4.13,25.43-.62,1.51,2.81,1,3.44-.05" transform="translate(-43.96 -41.2)"/></g><g class="cls-13"><path class="cls-14" d="M378.89,103.87a32.43,32.43,0,0,0,4.92-16c.1-7.74-2.36-13.72,2.92-20.25,4.43-5.44,10.84-8.12,16.36-12.5a85.59,85.59,0,0,0,12.71-12.23c-1.07,0-2.15.25-3.22.26,1.11,2.13,6.81,9.35,5.77,11.73-.21.65-7.91,2.91-8.55,3.35a40.71,40.71,0,0,0-12.11,9.64c-8,9.58-12.52,24.69-2.91,34.65.87.85,4.29-.5,3.42-1.56-16.81-17.16,6.68-41.16,23.61-44.85.43,0,1.92-.67,1.48-1.53-2.43-4.26-4.64-8.31-7.07-12.57-.66-1.06-2.59-.61-3.22.26a82.92,82.92,0,0,1-17.82,15.75c-4,2.64-9.17,4.65-12.13,8.35s-3.54,7.36-3.47,12.09c-.07,9.67,1.33,16.53-4.13,25.43C374.83,105.43,378.26,105,378.89,103.87Z" transform="translate(-43.96 -41.2)"/></g><g class="cls-15"><path class="cls-8" d="M371.37,485.89c-20.12,10.27-53.61,27.5-95.39-1.86,0-.07-2.22-1.5-4.89-3.74a7,7,0,0,0,1.32-.26l3.18-.85-2.23-2.42a10.45,10.45,0,0,1-2.79-6.33c3.43,2,7.79.93,10.23-.2l3-1.36-2.51-2a7.83,7.83,0,0,1-2.9-5.61c1.94,0,5.14-.67,10.38-3.26l1,1.22.23.23a22,22,0,0,1,2.2,2.07c21.84,22.23,50.93,23.35,84,21.93-1.49.73-3.11,1.55-4.8,2.41m-103-9.45a10.58,10.58,0,0,1-1.39-.16c-.71-.86-1.45-1.6-2.05-2.43l0-.07c-.52-.7-1-1.39-1.46-2.06l-.17-.27a20.8,20.8,0,0,1-1.06-2c-.08-.13-.06-.24-.14-.38a8.51,8.51,0,0,1-.53-1.61c0-.18-.06-.24-.07-.42a11.89,11.89,0,0,1-.14-1.58c0-.11,0-.18,0-.28a9.58,9.58,0,0,1,.3-1.76l0-.11a10,10,0,0,1,.74-1.66l0-.11a8.57,8.57,0,0,1,1.26-1.7l.19-.3a.24.24,0,0,0,.09-.15h0a1.33,1.33,0,0,0,.25-.34c0-.11,0-.11.09-.15l.48-.57c.07,0,.16-.19.23-.23a2,2,0,0,0,.39-.42c.09-.15.23-.23.32-.38a2.3,2.3,0,0,0,.52-.51c.23-.23.39-.42.61-.66s.36-.31.52-.51.36-.31.56-.44.29-.27.49-.4.63-.48,1-.69l.67-.41.8-.5.34-.21a3.83,3.83,0,0,1,.85-.43.47.47,0,0,0,.31-.1,11.69,11.69,0,0,1,3.24-.89c.07,0,.18,0,.24-.06.35,0,.63,0,1-.05a.6.6,0,0,1,.35,0,11.84,11.84,0,0,1,3.38.69c0,.07.11,0,.15.09.37.14.77.36,1.14.5,0,.07.11,0,.15.09a20.17,20.17,0,0,1,3.42,2.24c0,.07.15.09.19.16-4.66,2-7.34,2.49-8.37,2l-2.17-1-.54,2.27a12.17,12.17,0,0,0,1.86,9c-2,.28-4.31.07-5.53-2.51l-2.18-4.58-1.48,4.8a15.33,15.33,0,0,0,1.17,11.21m-6.26.35a6,6,0,0,1,.69,1l1.64,1.76,0,.07.46.45h0a61.06,61.06,0,0,0,8.81,7.24c43.61,30.83,79.91,12.15,99.38,2.18,3.07-1.62,5.81-3,8.09-4l.4-.25a2.59,2.59,0,0,0,1.19-2.86,4.13,4.13,0,0,0-4.15-3c-33.2,1.51-62.44,1-83.78-20.68-.78-.81-2.53-2.6-2.53-2.6l-1.52-1.56a28.8,28.8,0,0,0-5.86-4.71.24.24,0,0,1-.15-.09c-.56-.3-1.11-.61-1.63-.84-.11,0-.26-.12-.37-.14-.52-.24-1.06-.37-1.53-.54-.15-.09-.32-.08-.47-.17-.5-.06-1-.23-1.48-.29a1.86,1.86,0,0,0-.54-.13,11.27,11.27,0,0,0-1.46-.12c-.18,0-.39,0-.57,0a2.83,2.83,0,0,0-1-.06c-.18,0-.42.07-.59.09h0c-4.8.46-8.72,3.25-11.33,5.78-2.79-.78-4.79-2.22-5.31-3.66-.34-1,0-2.12,1-3.42a2,2,0,0,0-3.08-2.45c-2.42,3-2.23,5.54-1.7,7.15.81,2.37,3,4.32,6.22,5.6-.19.3-.41.53-.5.68a9.55,9.55,0,0,0-1.56,2c-.09.15-.12.26-.21.41-.3.56-.57,1.18-.83,1.81-.08.32-.2.58-.27.91a14.07,14.07,0,0,0-.29,1.48c0,.39,0,.68-.08,1.07s0,1,0,1.55a1.72,1.72,0,0,0,0,.46,7.39,7.39,0,0,0,.22,1.25c0,.18.06.24.07.42s.2.62.34,1,.22.51.32.82a4,4,0,0,0,.36.89,5.32,5.32,0,0,0,.44,1,3.23,3.23,0,0,0,.39.78l.66,1.07.45.74a7.64,7.64,0,0,0,.77,1.1c.27.29.44.56.71.86" transform="translate(-43.96 -41.2)"/></g><g class="cls-15"><path class="cls-8" d="M284.65,475.9a2.09,2.09,0,0,0-.28,2.85c.86.95,21.32,24.68,67.67,13.31a1.73,1.73,0,0,0,.58-.26,1.87,1.87,0,0,0,.91-2.13,2,2,0,0,0-2.39-1.48c-44,10.74-63.44-11.85-63.68-12.07a2,2,0,0,0-2.81-.21" transform="translate(-43.96 -41.2)"/></g><g class="cls-16"><path class="cls-8" d="M197.14,448c-1.41-.71-2.76-1.39-4-2,27.51,1.19,51.71.25,69.89-18.25a18.32,18.32,0,0,1,1.83-1.72l.19-.19.85-1c4.37,2.15,7,2.71,8.64,2.71a6.51,6.51,0,0,1-2.42,4.67L270,433.86,272.5,435c2,.95,5.66,1.8,8.51.17a8.7,8.7,0,0,1-2.32,5.26l-1.86,2,2.64.71a5.79,5.79,0,0,0,1.1.22c-2.22,1.86-4,3.05-4.07,3.11-34.76,24.43-62.63,10.1-79.37,1.55m85.73-7.87a12.76,12.76,0,0,0,1-9.32l-1.23-4-1.81,3.81c-1,2.14-3,2.32-4.6,2.09a10.13,10.13,0,0,0,1.55-7.51l-.45-1.89-1.81.81c-.86.39-3.09,0-7-1.68,0-.06.12-.08.16-.13a16.78,16.78,0,0,1,2.84-1.86c0-.06.09,0,.12-.08.3-.12.64-.3.95-.42,0-.06.09,0,.12-.08a9.85,9.85,0,0,1,2.82-.57.5.5,0,0,1,.29,0c.29,0,.53,0,.82,0,.06,0,.15,0,.2,0a9.72,9.72,0,0,1,2.7.74.39.39,0,0,0,.26.08,3.19,3.19,0,0,1,.7.36l.28.17.67.41.56.34c.28.17.52.4.8.57s.24.23.41.33.3.26.47.37.3.26.43.42l.51.55a1.91,1.91,0,0,0,.43.42c.08.12.19.19.27.32a1.67,1.67,0,0,0,.32.35c.06,0,.13.16.19.19l.4.48c.06,0,.06,0,.08.12a1.11,1.11,0,0,0,.21.28h0a.2.2,0,0,0,.08.12l.15.25a7.13,7.13,0,0,1,1.05,1.42l0,.09a8.34,8.34,0,0,1,.61,1.38l0,.09a8,8,0,0,1,.25,1.46c0,.09,0,.15,0,.24a9.89,9.89,0,0,1-.12,1.31c0,.15,0,.2-.06.35a7.08,7.08,0,0,1-.44,1.34c-.07.11,0,.2-.12.31a17.3,17.3,0,0,1-.89,1.69l-.14.22c-.34.56-.78,1.14-1.21,1.72l0,.06c-.5.69-1.12,1.31-1.71,2a8.8,8.8,0,0,1-1.16.13m5.21.29c.23-.24.37-.47.59-.71a6.36,6.36,0,0,0,.64-.91l.38-.61.55-.89a2.69,2.69,0,0,0,.32-.65,4.42,4.42,0,0,0,.37-.85,3.29,3.29,0,0,0,.3-.74c.08-.26.18-.42.27-.68s.2-.57.28-.83,0-.2.06-.35a6.15,6.15,0,0,0,.18-1,1.43,1.43,0,0,0,0-.38c0-.44,0-.91,0-1.29s0-.56-.07-.89a11.71,11.71,0,0,0-.24-1.23c-.06-.27-.16-.49-.23-.76-.22-.52-.44-1-.69-1.5-.08-.12-.1-.21-.18-.34a8,8,0,0,0-1.29-1.64c-.08-.12-.27-.32-.42-.57,2.65-1.06,4.5-2.69,5.18-4.66.44-1.34.6-3.48-1.41-5.95a1.64,1.64,0,0,0-2.56,2,3,3,0,0,1,.86,2.84c-.43,1.2-2.1,2.4-4.42,3a16.18,16.18,0,0,0-9.42-4.81h0l-.49-.07a2.35,2.35,0,0,0-.8,0c-.15,0-.33,0-.47,0a9.37,9.37,0,0,0-1.21.1,1.54,1.54,0,0,0-.45.11c-.42.05-.81.19-1.23.24-.12.08-.27.06-.39.14-.39.14-.85.25-1.27.45-.09,0-.21.1-.3.12-.43.2-.89.45-1.36.7a.2.2,0,0,1-.12.08,24,24,0,0,0-4.88,3.92l-1.26,1.3s-1.46,1.49-2.1,2.17c-17.76,18.07-42.08,18.46-69.71,17.2a3.44,3.44,0,0,0-3.46,2.49,2.16,2.16,0,0,0,1,2.38l.33.21c1.9.79,4.18,2,6.73,3.31,16.2,8.3,46.41,23.84,82.69-1.81a50.81,50.81,0,0,0,7.33-6h0l.39-.38,0-.06,1.37-1.47a5,5,0,0,1,.57-.8" transform="translate(-43.96 -41.2)"/></g><g class="cls-16"><path class="cls-8" d="M269.29,439.71a1.69,1.69,0,0,0-2.34.17c-.19.19-16.4,19-53,10a1.64,1.64,0,0,0-2,1.23,1.56,1.56,0,0,0,.75,1.77,1.44,1.44,0,0,0,.48.22c38.57,9.46,55.59-10.28,56.31-11.07a1.74,1.74,0,0,0-.23-2.37" transform="translate(-43.96 -41.2)"/></g><g class="cls-17"><path d="M119.07,436.74c-6.09,0-8.27,7.76-.94,7.76,6.09,0,8.27-7.76.94-7.76" transform="translate(-43.96 -41.2)"/></g><g class="cls-17"><path d="M82.88,450.66c-6.09,0-8.27,7.76-1,7.76,6.09,0,8.27-7.76,1-7.76" transform="translate(-43.96 -41.2)"/></g><g class="cls-17"><path d="M111.23,404.83c-3.92,0-11.46,5.87-4.21,5.87,3.84,0,11.39-5.87,4.21-5.87" transform="translate(-43.96 -41.2)"/></g><g class="cls-17"><path d="M81.86,420.64c-6.31,0-8.12,8.34-.8,8.34,6.31,0,8.05-8.34.8-8.34" transform="translate(-43.96 -41.2)"/></g><g class="cls-17"><path d="M103.91,438.55c-6.09,0-8.27,7.83-.94,7.83,6.09,0,8.27-7.83.94-7.83" transform="translate(-43.96 -41.2)"/></g><g class="cls-17"><path d="M73.38,444.42c-3.41,0-11.6,5.08-4.42,5.08,3.34,0,11.53-5.08,4.42-5.08" transform="translate(-43.96 -41.2)"/></g><g class="cls-17"><path d="M101.08,425.42c-4.28,0-11.31,6.53-4.06,6.53,4.35-.07,11.31-6.53,4.06-6.53" transform="translate(-43.96 -41.2)"/></g><g class="cls-17"><path d="M149.89,412.73c-4.5,0-11.17,6.82-4,6.82,4.5,0,11.24-6.82,4-6.82" transform="translate(-43.96 -41.2)"/></g><g class="cls-17"><path d="M120.59,472.63c-3.92,0-11.39,5.95-4.21,5.95,3.92,0,11.39-5.95,4.21-5.95" transform="translate(-43.96 -41.2)"/></g><g class="cls-17"><path d="M135.46,445.87c-4.13,0-11.39,6.16-4.13,6.16,4.06,0,11.31-6.16,4.13-6.16" transform="translate(-43.96 -41.2)"/></g><g class="cls-17"><path d="M155.62,429.85c-3.92,0-11.46,5.87-4.21,5.87,3.92,0,11.39-5.87,4.21-5.87" transform="translate(-43.96 -41.2)"/></g><g class="cls-17"><path d="M178,429.12c-6,0-8.34,7.54-1,7.54,6,0,8.34-7.54,1-7.54" transform="translate(-43.96 -41.2)"/></g><g class="cls-17"><path d="M150.83,443.77c-5.95,0-8.41,7.4-1.09,7.4,5.95,0,8.41-7.4,1.09-7.4" transform="translate(-43.96 -41.2)"/></g><g class="cls-17"><path d="M144.59,430.43c-3.34,0-11.6,5-4.42,5,3.34,0,11.6-5,4.42-5" transform="translate(-43.96 -41.2)"/></g><g class="cls-17"><path d="M137.56,452.69c-4.71,0-11.1,7.11-3.92,7.11,4.71,0,11.1-7.11,3.92-7.11" transform="translate(-43.96 -41.2)"/></g><g class="cls-17"><path d="M51.18,426.87c-3.84,0-11.46,5.8-4.21,5.8,3.84,0,11.46-5.8,4.21-5.8" transform="translate(-43.96 -41.2)"/></g><g class="cls-17"><path d="M53.43,442.54c-3.55,0-11.53,5.29-4.35,5.29,3.48,0,11.46-5.29,4.35-5.29" transform="translate(-43.96 -41.2)"/></g><g class="cls-17"><path d="M104.2,463.42c-6.09,0-8.27,7.69-1,7.69,6.09,0,8.27-7.69,1-7.69" transform="translate(-43.96 -41.2)"/></g><g class="cls-17"><path d="M135,415.63c-3.19,0-11.6,4.71-4.5,4.71,3.12,0,11.6-4.71,4.5-4.71" transform="translate(-43.96 -41.2)"/></g><g class="cls-17"><path d="M77.51,407.8c-3.77,0-11.46,5.73-4.28,5.73,3.77,0,11.46-5.73,4.28-5.73" transform="translate(-43.96 -41.2)"/></g></svg>